<svg xmlns="http://www.w3.org/2000/svg" xmlns:svg="http://www.w3.org/2000/svg" id="e0c2a2f0-e647-4f01-b91b-afb7bf15040d" width="16.008" height="16.978" version="1.1" viewBox="0 0 16.008 16.978"><defs id="defs61917"><linearGradient id="a7f731a9-5c58-44f4-8037-3c3627e98008" x1="8.45" x2="8.45" y1="11.47" y2="6.24" gradientUnits="userSpaceOnUse"><stop id="stop61906" offset="0" stop-color="#198ab3"/><stop id="stop61908" offset=".16" stop-color="#1f9ac2"/><stop id="stop61910" offset=".5" stop-color="#29bade"/><stop id="stop61912" offset=".8" stop-color="#30cdef"/><stop id="stop61914" offset="1" stop-color="#32d4f5"/></linearGradient></defs><title id="title61919">Icon-manage-316</title><ellipse id="ellipse61921" cx="7.458" cy="8.35" rx="2.6" ry="2.61" style="fill:url(#a7f731a9-5c58-44f4-8037-3c3627e98008)"/><ellipse id="ellipse61923" cx="14.738" cy="4.27" rx="1.27" ry="1.28" style="fill:#32bedd"/><ellipse id="ellipse61925" cx="14.738" cy="8.45" rx="1.27" ry="1.28" style="fill:#32bedd"/><ellipse id="ellipse61927" cx="14.738" cy="12.62" rx="1.27" ry="1.28" style="fill:#32bedd"/><ellipse id="ellipse61929" cx="11.838" cy="6.41" rx="1.27" ry="1.28" style="fill:#50e6ff"/><ellipse id="ellipse61931" cx="11.838" cy="10.59" rx="1.27" ry="1.28" style="fill:#50e6ff"/><path id="path61933" d="m 1.4176491,5.0804072 a 0.24,0.24 0 0 1 0.09,-0.08 l 5.82,-3.39 c 0.08,0 4.9999999,2.78 4.9999999,2.78 a 0.24,0.24 0 0 0 0.36,-0.21 v -1.09 a 0.24,0.24 0 0 0 -0.12,-0.21 c 0,0 -5.1599999,-2.91999996 -5.2299999,-2.87999996227 L 0.11764912,4.1404072 l -0.11,0.08 z" style="fill:#949494"/><path id="path61935" d="m 12.307649,12.640407 -4.7399999,2.73 a 0.35,0.35 0 0 1 -0.11,0 v 1.6 a 0.2,0.2 0 0 0 0.11,0 l 4.9999999,-2.86 a 0.24,0.24 0 0 0 0.12,-0.2 v -1.06 a 0.24,0.24 0 0 0 -0.38,-0.21 z" style="fill:#949494"/><path id="path61937" d="m 7.4576491,15.400407 a 0.31,0.31 0 0 1 -0.13,0 l -5.82,-3.43 a 0.22,0.22 0 0 1 -0.12,-0.2 V 5.2004072 a 0.27,0.27 0 0 1 0,-0.12 l -1.37999998,-0.86 a 0.28,0.28 0 0 0 0,0.13 v 8.2699998 a 0.24,0.24 0 0 0 0.11,0.21 l 7.21999998,4.14 a 0.24,0.24 0 0 0 0.12,0 z" style="fill:#b3b3b3"/><metadata id="metadata61939"/></svg>